<svg width="888" height="791" viewBox="0 0 888 791" fill="none" xmlns="http://www.w3.org/2000/svg">
<path d="M824 760C933.352 760 1022 671.352 1022 562C1022 452.648 933.352 364 824 364C714.648 364 626 452.648 626 562C626 671.352 714.648 760 824 760Z" fill="url(#paint0_linear_2067_365)"/>
<path d="M673 194C716.078 194 751 159.078 751 116C751 72.9218 716.078 38 673 38C629.922 38 595 72.9218 595 116C595 159.078 629.922 194 673 194Z" fill="url(#paint1_linear_2067_365)"/>
<path opacity="0.498675" d="M50 679C77.6142 679 100 656.614 100 629C100 601.386 77.6142 579 50 579C22.3858 579 0 601.386 0 629C0 656.614 22.3858 679 50 679Z" fill="url(#paint2_linear_2067_365)"/>
<path opacity="0.139718" fill-rule="evenodd" clip-rule="evenodd" d="M51.0745 278.095C50.279 280.776 50.0065 305.79 50 338.56V341.151C50.0138 408.61 51.097 635.45 51.076 641.069C50.9492 674.416 70.7884 709.422 120.556 743.654C193.48 793.817 247.599 774.026 300.092 762.101C343.713 752.193 384.829 742.284 431 768C532.734 824.664 602.729 764.831 709.732 694.074C738.187 675.257 751.611 652.995 753.166 628.937C753.572 622.672 754.473 549.502 754.481 483.577V481.696C754.475 429.555 753.899 382.407 752.064 377.168C731.698 319.027 652.602 329.093 561.255 280.127C462.946 227.429 374.03 196.957 295.133 196.962C251.631 196.964 211.164 206.23 173.871 226.145C117.966 255.998 64.8115 231.851 51.0745 278.095Z" fill="url(#paint3_linear_2067_365)"/>
<path fill-rule="evenodd" clip-rule="evenodd" d="M709.732 461.199C602.73 531.956 534.737 470.757 433.003 414.093C331.269 357.429 254.079 473.727 120.555 381.88C-12.9693 290.033 68.9433 192.628 173.871 136.596C278.799 80.5634 408.741 108.824 561.255 190.578C711.188 270.947 816.735 390.442 709.732 461.199Z" fill="#C59FFF"/>
<path fill-rule="evenodd" clip-rule="evenodd" d="M291.283 297.197C291.485 300.385 295.735 302.61 295.735 302.61L492.314 411.834C492.314 411.834 497.934 415.394 504.704 411.834C511.974 408.013 661.815 320.034 661.815 320.034C661.815 320.034 667.995 317.197 668.431 312.128C668.443 312.345 668.457 312.561 668.457 312.793V320.803C668.457 326.224 661.815 329.27 661.815 329.27C661.815 329.27 511.974 412.337 504.704 416.159C497.934 419.719 492.314 416.159 492.314 416.159L295.735 306.935C295.735 306.935 291.264 304.603 291.264 301.29V298.205C291.268 298.127 291.271 297.265 291.276 296.654C291.279 296.944 291.282 297.171 291.283 297.197" fill="#DDDDFC"/>
<path fill-rule="evenodd" clip-rule="evenodd" d="M295.096 290.705L458.082 195.101C463.958 191.91 468.173 195.101 468.173 195.101L661.815 302.853C661.815 302.853 668.456 306.411 668.456 311.566C668.456 311.757 668.446 311.943 668.43 312.128C667.995 317.196 661.815 320.034 661.815 320.034C661.815 320.034 511.974 408.012 504.704 411.835C497.934 415.394 492.314 411.835 492.314 411.835L295.734 302.61C295.734 302.61 291.486 300.385 291.283 297.196C291.282 297.171 291.279 296.944 291.276 296.654C291.271 296.075 291.264 295.235 291.264 295.183C291.264 292.627 295.096 290.705 295.096 290.705" fill="#F6F6FF"/>
<path fill-rule="evenodd" clip-rule="evenodd" d="M675.936 303.515C676.105 303.416 676.266 303.311 676.422 303.201C680.696 300.202 679.994 293.655 679.994 293.655C679.994 293.655 680 129.846 679.604 121.893C679.235 114.487 673.143 111.734 673.143 111.734L473.638 2.60839C473.638 2.60839 469.447 0.2857 466.511 1.78144C466.487 1.79398 466.284 1.90963 466.024 2.05872C465.883 2.14092 465.724 2.23149 465.566 2.32206C465.566 2.32206 465.567 2.32206 465.567 2.32136C466.377 1.80513 467.985 1.02974 468.503 0.732264C468.761 0.583177 468.965 0.46753 468.988 0.455687C471.925 -1.04075 477.217 1.62539 477.217 1.62539L676.722 110.752C676.722 110.752 682.813 113.504 683.182 120.911C683.579 128.864 683.572 292.672 683.572 292.672C683.572 292.672 684.275 299.219 680 302.218C679.845 302.328 679.685 302.433 679.515 302.532C674.938 305.22 670.458 304.42 670.458 304.42H670.457C672.271 304.643 674.244 304.51 675.936 303.515" fill="#DDDDFC"/>
<path fill-rule="evenodd" clip-rule="evenodd" d="M464.711 2.81684C464.746 2.79663 465.149 2.56325 465.566 2.3222C465.724 2.23164 465.882 2.14037 466.024 2.05886C466.284 1.90978 466.486 1.79413 466.51 1.78159C469.447 0.285846 473.639 2.60853 473.639 2.60853L673.143 111.734C673.143 111.734 679.235 114.487 679.603 121.893C680.001 129.846 679.993 293.655 679.993 293.655C679.993 293.655 680.697 300.202 676.422 303.201C676.266 303.31 676.105 303.416 675.936 303.516C674.244 304.51 672.271 304.643 670.458 304.42C667.365 304.038 664.735 302.613 664.735 302.613L468.07 192.742C468.07 192.742 463.037 190.95 462.809 184.468L462.733 8.29264C462.733 8.29264 462.442 4.14886 464.711 2.81684" fill="#F6F6FF"/>
<path fill-rule="evenodd" clip-rule="evenodd" d="M613.872 307.527L613.84 307.289C613.844 307.369 613.855 307.447 613.872 307.527" fill="#DDDDFC"/>
<path fill-rule="evenodd" clip-rule="evenodd" d="M613.838 307.276L613.84 307.289C613.84 307.285 613.84 307.28 613.84 307.276H613.838Z" fill="#DDDDFC"/>
<path fill-rule="evenodd" clip-rule="evenodd" d="M640.246 309.011L630.198 314.55C628.382 315.551 627.205 315.456 625.701 314.67L614.886 308.743C614.275 308.38 613.968 307.957 613.872 307.527L613.987 308.38C614.063 308.817 614.451 309.181 614.929 309.463L625.745 315.391C627.248 316.177 628.425 316.273 630.24 315.272L640.289 309.732C640.909 309.391 641.501 309.151 641.562 308.466L641.643 307.21H641.638C641.607 307.899 641.106 308.537 640.246 309.011" fill="#DDDDFC"/>
<path fill-rule="evenodd" clip-rule="evenodd" d="M594.036 296.521L594.004 296.283C594.008 296.362 594.019 296.442 594.036 296.521" fill="#DDDDFC"/>
<path fill-rule="evenodd" clip-rule="evenodd" d="M594.002 296.27L594.004 296.283V296.27H594.002Z" fill="#DDDDFC"/>
<path fill-rule="evenodd" clip-rule="evenodd" d="M620.409 298.006L610.362 303.545C608.547 304.545 607.369 304.449 605.865 303.663L595.05 297.736C594.439 297.375 594.133 296.952 594.036 296.521L594.152 297.375C594.228 297.811 594.614 298.174 595.093 298.458L605.91 304.386C607.412 305.171 608.589 305.267 610.404 304.266L620.454 298.727C621.072 298.385 621.666 298.145 621.725 297.46L621.807 296.204L621.802 296.205C621.771 296.893 621.27 297.531 620.409 298.006" fill="#DDDDFC"/>
<path fill-rule="evenodd" clip-rule="evenodd" d="M600.79 286.84L590.742 292.38C588.927 293.38 587.749 293.284 586.245 292.499L575.43 286.571C574.819 286.211 574.512 285.786 574.416 285.354L574.531 286.21C574.607 286.646 574.995 287.009 575.473 287.292L586.288 293.22C587.792 294.006 588.969 294.101 590.784 293.101L600.833 287.561C601.452 287.22 602.044 286.98 602.105 286.295L602.187 285.039H602.182C602.151 285.727 601.65 286.366 600.79 286.84" fill="#DDDDFC"/>
<path fill-rule="evenodd" clip-rule="evenodd" d="M555.277 273.785L555.245 273.547C555.249 273.627 555.26 273.705 555.277 273.785" fill="#DDDDFC"/>
<path fill-rule="evenodd" clip-rule="evenodd" d="M555.243 273.534L555.245 273.547V273.534H555.243Z" fill="#DDDDFC"/>
<path fill-rule="evenodd" clip-rule="evenodd" d="M581.651 275.269L571.603 280.808C569.787 281.809 568.61 281.713 567.107 280.928L556.291 275.001C555.68 274.638 555.373 274.215 555.277 273.784L555.392 274.638C555.468 275.075 555.856 275.438 556.334 275.721L567.15 281.648C568.653 282.434 569.83 282.53 571.646 281.53L581.694 275.991C582.313 275.649 582.906 275.408 582.967 274.724L583.048 273.468H583.042C583.012 274.157 582.511 274.795 581.651 275.269" fill="#DDDDFC"/>
<path fill-rule="evenodd" clip-rule="evenodd" d="M535.441 262.779L535.408 262.541C535.413 262.62 535.424 262.699 535.441 262.779" fill="#DDDDFC"/>
<path fill-rule="evenodd" clip-rule="evenodd" d="M535.407 262.528L535.409 262.541V262.528H535.407Z" fill="#DDDDFC"/>
<path fill-rule="evenodd" clip-rule="evenodd" d="M561.815 264.264L551.767 269.803C549.952 270.803 548.775 270.708 547.271 269.922L536.455 263.994C535.843 263.634 535.537 263.21 535.441 262.779L535.556 263.633C535.632 264.069 536.019 264.433 536.499 264.716L547.314 270.644C548.818 271.429 549.994 271.525 551.809 270.524L561.858 264.985C562.477 264.643 563.071 264.404 563.13 263.717L563.211 262.462L563.207 262.463C563.177 263.151 562.676 263.789 561.815 264.264" fill="#DDDDFC"/>
<path fill-rule="evenodd" clip-rule="evenodd" d="M542.194 253.098L532.146 258.637C530.332 259.638 529.154 259.542 527.65 258.756L516.834 252.828C516.224 252.468 515.916 252.043 515.821 251.612L515.936 252.468C516.012 252.904 516.4 253.267 516.878 253.55L527.693 259.477C529.197 260.263 530.374 260.359 532.189 259.359L542.238 253.819C542.858 253.478 543.449 253.237 543.51 252.553L543.591 251.297H543.586C543.556 251.985 543.055 252.623 542.194 253.098" fill="#DDDDFC"/>
<path fill-rule="evenodd" clip-rule="evenodd" d="M496.216 240.361L496.217 240.373C496.217 240.368 496.218 240.365 496.217 240.361H496.216Z" fill="#DDDDFC"/>
<path fill-rule="evenodd" clip-rule="evenodd" d="M522.623 242.096L512.575 247.634C510.76 248.635 509.583 248.539 508.078 247.754L497.263 241.827C496.653 241.465 496.346 241.041 496.25 240.61L496.365 241.465C496.439 241.901 496.828 242.264 497.307 242.548L508.122 248.474C509.625 249.261 510.803 249.357 512.618 248.356L522.666 242.817C523.286 242.475 523.877 242.234 523.938 241.549L524.021 240.294H524.016C523.985 240.983 523.483 241.621 522.623 242.096" fill="#DDDDFC"/>
<path fill-rule="evenodd" clip-rule="evenodd" d="M476.414 229.605L476.381 229.367C476.386 229.446 476.397 229.525 476.414 229.605" fill="#DDDDFC"/>
<path fill-rule="evenodd" clip-rule="evenodd" d="M476.38 229.354L476.381 229.367V229.354H476.38Z" fill="#DDDDFC"/>
<path fill-rule="evenodd" clip-rule="evenodd" d="M502.787 231.09L492.74 236.629C490.925 237.63 489.746 237.533 488.243 236.747L477.427 230.82C476.817 230.459 476.51 230.035 476.414 229.605L476.529 230.459C476.605 230.896 476.992 231.258 477.471 231.542L488.287 237.469C489.79 238.254 490.967 238.351 492.782 237.35L502.831 231.81C503.45 231.47 504.042 231.229 504.103 230.544L504.184 229.288L504.18 229.289C504.149 229.977 503.648 230.615 502.787 231.09" fill="#DDDDFC"/>
<path fill-rule="evenodd" clip-rule="evenodd" d="M483.168 219.924L473.119 225.463C471.305 226.464 470.127 226.368 468.622 225.582L457.806 219.655C457.196 219.294 456.89 218.869 456.794 218.439L456.909 219.294C456.984 219.73 457.373 220.093 457.85 220.376L468.666 226.303C470.168 227.09 471.347 227.185 473.162 226.184L483.209 220.645C483.829 220.304 484.422 220.063 484.482 219.379L484.563 218.123H484.56C484.529 218.811 484.028 219.45 483.168 219.924" fill="#DDDDFC"/>
<path fill-rule="evenodd" clip-rule="evenodd" d="M594.358 318.692L594.326 318.454C594.331 318.535 594.341 318.613 594.358 318.692" fill="#DDDDFC"/>
<path fill-rule="evenodd" clip-rule="evenodd" d="M594.325 318.442L594.326 318.455C594.326 318.45 594.327 318.446 594.326 318.442H594.325Z" fill="#DDDDFC"/>
<path fill-rule="evenodd" clip-rule="evenodd" d="M574.522 307.687L574.49 307.449C574.495 307.528 574.506 307.607 574.522 307.687" fill="#DDDDFC"/>
<path fill-rule="evenodd" clip-rule="evenodd" d="M574.488 307.436L574.49 307.449C574.491 307.445 574.49 307.44 574.49 307.436H574.488Z" fill="#DDDDFC"/>
<path fill-rule="evenodd" clip-rule="evenodd" d="M600.896 309.171L590.849 314.71C589.034 315.712 587.856 315.615 586.352 314.829L575.536 308.902C574.926 308.541 574.619 308.117 574.522 307.687L574.638 308.541C574.714 308.978 575.1 309.34 575.58 309.623L586.396 315.551C587.898 316.336 589.076 316.433 590.891 315.432L600.94 309.892C601.559 309.55 602.151 309.311 602.212 308.625L602.293 307.37L602.289 307.37C602.259 308.059 601.757 308.697 600.896 309.171" fill="#DDDDFC"/>
<path fill-rule="evenodd" clip-rule="evenodd" d="M581.276 298.006L571.228 303.545C569.413 304.545 568.235 304.45 566.732 303.664L555.915 297.736C555.305 297.376 554.999 296.951 554.902 296.52L555.017 297.375C555.092 297.811 555.48 298.174 555.959 298.457L566.774 304.385C568.278 305.172 569.457 305.267 571.271 304.266L581.319 298.727C581.938 298.385 582.532 298.145 582.592 297.46L582.673 296.205H582.668C582.637 296.892 582.136 297.531 581.276 298.006" fill="#DDDDFC"/>
<path fill-rule="evenodd" clip-rule="evenodd" d="M535.764 284.95L535.731 284.713C535.735 284.793 535.746 284.871 535.764 284.95" fill="#DDDDFC"/>
<path fill-rule="evenodd" clip-rule="evenodd" d="M535.73 284.7L535.731 284.713C535.731 284.708 535.732 284.704 535.731 284.7H535.73Z" fill="#DDDDFC"/>
<path fill-rule="evenodd" clip-rule="evenodd" d="M562.137 286.435L552.089 291.973C550.274 292.974 549.097 292.879 547.593 292.094L536.777 286.166C536.167 285.803 535.859 285.381 535.764 284.95L535.879 285.803C535.954 286.24 536.342 286.604 536.82 286.887L547.636 292.815C549.138 293.601 550.317 293.696 552.132 292.696L562.181 287.156C562.8 286.814 563.392 286.574 563.453 285.889L563.534 284.634H563.53C563.499 285.322 562.998 285.96 562.137 286.435" fill="#DDDDFC"/>
<path fill-rule="evenodd" clip-rule="evenodd" d="M515.927 273.945L515.895 273.707C515.9 273.786 515.911 273.865 515.927 273.945" fill="#DDDDFC"/>
<path fill-rule="evenodd" clip-rule="evenodd" d="M515.893 273.694L515.895 273.707C515.896 273.702 515.895 273.698 515.895 273.694H515.893Z" fill="#DDDDFC"/>
<path fill-rule="evenodd" clip-rule="evenodd" d="M542.301 275.429L532.253 280.969C530.439 281.969 529.261 281.873 527.758 281.087L516.941 275.159C516.331 274.798 516.024 274.375 515.927 273.944L516.043 274.798C516.119 275.235 516.505 275.598 516.985 275.881L527.801 281.809C529.303 282.594 530.481 282.691 532.296 281.69L542.345 276.15C542.964 275.809 543.556 275.569 543.616 274.883L543.698 273.628H543.693C543.663 274.316 543.162 274.955 542.301 275.429" fill="#DDDDFC"/>
<path fill-rule="evenodd" clip-rule="evenodd" d="M522.681 264.264L512.634 269.803C510.818 270.803 509.64 270.708 508.137 269.922L497.32 263.995C496.71 263.634 496.404 263.209 496.307 262.778L496.423 263.634C496.497 264.069 496.887 264.433 497.364 264.715L508.18 270.643C509.683 271.429 510.861 271.525 512.676 270.524L522.724 264.985C523.343 264.643 523.937 264.403 523.996 263.718L524.078 262.463H524.073C524.042 263.15 523.541 263.789 522.681 264.264" fill="#DDDDFC"/>
<path fill-rule="evenodd" clip-rule="evenodd" d="M476.736 251.776L476.704 251.539C476.709 251.618 476.719 251.697 476.736 251.776" fill="#DDDDFC"/>
<path fill-rule="evenodd" clip-rule="evenodd" d="M476.702 251.526L476.704 251.539C476.704 251.534 476.704 251.53 476.704 251.526H476.702Z" fill="#DDDDFC"/>
<path fill-rule="evenodd" clip-rule="evenodd" d="M503.109 253.261L493.062 258.799C491.247 259.801 490.069 259.704 488.566 258.92L477.749 252.992C477.139 252.63 476.832 252.207 476.736 251.776L476.851 252.63C476.927 253.067 477.315 253.43 477.792 253.713L488.609 259.641C490.111 260.427 491.29 260.522 493.104 259.521L503.153 253.982C503.772 253.64 504.364 253.4 504.426 252.715L504.507 251.46H504.502C504.472 252.147 503.97 252.786 503.109 253.261" fill="#DDDDFC"/>
<path fill-rule="evenodd" clip-rule="evenodd" d="M456.9 240.77L456.868 240.533C456.872 240.612 456.884 240.692 456.9 240.77" fill="#DDDDFC"/>
<path fill-rule="evenodd" clip-rule="evenodd" d="M456.866 240.52L456.868 240.533V240.52H456.866Z" fill="#DDDDFC"/>
<path fill-rule="evenodd" clip-rule="evenodd" d="M483.273 242.256L473.226 247.795C471.411 248.795 470.234 248.699 468.73 247.913L457.914 241.985C457.304 241.625 456.997 241.201 456.9 240.77L457.015 241.625C457.092 242.061 457.478 242.423 457.958 242.707L468.774 248.635C470.276 249.42 471.454 249.517 473.269 248.516L483.318 242.977C483.937 242.635 484.529 242.395 484.589 241.709L484.671 240.453L484.666 240.454C484.635 241.142 484.134 241.781 483.273 242.256" fill="#DDDDFC"/>
<path fill-rule="evenodd" clip-rule="evenodd" d="M573.275 329.858L573.243 329.62C573.246 329.699 573.258 329.778 573.275 329.858" fill="#DDDDFC"/>
<path fill-rule="evenodd" clip-rule="evenodd" d="M573.241 329.607L573.243 329.621C573.242 329.616 573.244 329.612 573.242 329.607H573.241Z" fill="#DDDDFC"/>
<path fill-rule="evenodd" clip-rule="evenodd" d="M553.439 318.852L553.407 318.615C553.411 318.693 553.423 318.773 553.439 318.852" fill="#DDDDFC"/>
<path fill-rule="evenodd" clip-rule="evenodd" d="M553.405 318.601L553.407 318.615V318.601H553.405Z" fill="#DDDDFC"/>
<path fill-rule="evenodd" clip-rule="evenodd" d="M579.813 320.337L569.765 325.876C567.95 326.876 566.772 326.78 565.269 325.994L554.452 320.067C553.842 319.706 553.535 319.283 553.439 318.852L553.554 319.706C553.63 320.142 554.017 320.505 554.497 320.789L565.313 326.717C566.815 327.502 567.992 327.598 569.808 326.597L579.856 321.058C580.475 320.716 581.068 320.476 581.129 319.791L581.21 318.535L581.205 318.536C581.174 319.224 580.673 319.862 579.813 320.337" fill="#DDDDFC"/>
<path fill-rule="evenodd" clip-rule="evenodd" d="M560.193 309.171L550.144 314.71C548.33 315.712 547.153 315.615 545.648 314.83L534.832 308.902C534.221 308.541 533.915 308.117 533.819 307.686L533.934 308.541C534.01 308.977 534.398 309.34 534.875 309.623L545.692 315.551C547.194 316.337 548.372 316.433 550.188 315.432L560.236 309.892C560.855 309.551 561.448 309.311 561.507 308.626L561.588 307.37H561.586C561.554 308.058 561.053 308.697 560.193 309.171" fill="#DDDDFC"/>
<path fill-rule="evenodd" clip-rule="evenodd" d="M514.68 296.116L514.648 295.878C514.651 295.958 514.663 296.036 514.68 296.116" fill="#DDDDFC"/>
<path fill-rule="evenodd" clip-rule="evenodd" d="M514.646 295.865L514.648 295.879C514.647 295.873 514.649 295.87 514.647 295.865H514.646Z" fill="#DDDDFC"/>
<path fill-rule="evenodd" clip-rule="evenodd" d="M541.053 297.6L531.006 303.139C529.19 304.14 528.013 304.044 526.509 303.259L515.693 297.332C515.084 296.969 514.776 296.546 514.68 296.116L514.795 296.969C514.87 297.406 515.258 297.769 515.738 298.053L526.552 303.98C528.055 304.765 529.234 304.862 531.049 303.861L541.096 298.322C541.716 297.98 542.309 297.74 542.37 297.055L542.451 295.8H542.446C542.415 296.488 541.913 297.126 541.053 297.6" fill="#DDDDFC"/>
<path fill-rule="evenodd" clip-rule="evenodd" d="M494.844 285.11L494.812 284.872C494.816 284.951 494.827 285.031 494.844 285.11" fill="#DDDDFC"/>
<path fill-rule="evenodd" clip-rule="evenodd" d="M494.81 284.859L494.812 284.873V284.859H494.81Z" fill="#DDDDFC"/>
<path fill-rule="evenodd" clip-rule="evenodd" d="M521.218 286.595L511.171 292.134C509.355 293.134 508.177 293.038 506.674 292.252L495.857 286.325C495.247 285.964 494.94 285.541 494.844 285.11L494.96 285.964C495.035 286.4 495.422 286.763 495.902 287.047L506.718 292.975C508.22 293.76 509.397 293.856 511.213 292.855L521.261 287.316C521.88 286.974 522.473 286.734 522.534 286.049L522.615 284.793L522.61 284.794C522.579 285.482 522.078 286.12 521.218 286.595" fill="#DDDDFC"/>
<path fill-rule="evenodd" clip-rule="evenodd" d="M501.598 275.429L491.549 280.969C489.735 281.969 488.557 281.873 487.053 281.087L476.237 275.16C475.627 274.799 475.319 274.374 475.224 273.944L475.339 274.798C475.414 275.235 475.802 275.598 476.28 275.881L487.096 281.808C488.599 282.595 489.777 282.69 491.593 281.69L501.64 276.15C502.26 275.809 502.853 275.568 502.913 274.884L502.993 273.628H502.99C502.959 274.316 502.458 274.955 501.598 275.429" fill="#DDDDFC"/>
<path fill-rule="evenodd" clip-rule="evenodd" d="M455.653 262.942L455.62 262.704C455.624 262.784 455.636 262.862 455.653 262.942" fill="#DDDDFC"/>
<path fill-rule="evenodd" clip-rule="evenodd" d="M455.619 262.691L455.62 262.704C455.62 262.699 455.621 262.696 455.62 262.691H455.619Z" fill="#DDDDFC"/>
<path fill-rule="evenodd" clip-rule="evenodd" d="M482.026 264.426L471.978 269.965C470.163 270.967 468.986 270.87 467.482 270.085L456.666 264.157C456.057 263.795 455.748 263.372 455.653 262.942L455.768 263.795C455.843 264.233 456.231 264.596 456.709 264.879L467.525 270.806C469.028 271.591 470.207 271.688 472.021 270.687L482.069 265.148C482.689 264.806 483.281 264.566 483.342 263.881L483.423 262.625H483.419C483.388 263.314 482.886 263.952 482.026 264.426" fill="#DDDDFC"/>
<path fill-rule="evenodd" clip-rule="evenodd" d="M435.817 251.937L435.785 251.698C435.789 251.777 435.8 251.857 435.817 251.937" fill="#DDDDFC"/>
<path fill-rule="evenodd" clip-rule="evenodd" d="M435.783 251.685L435.785 251.699V251.685H435.783Z" fill="#DDDDFC"/>
<path fill-rule="evenodd" clip-rule="evenodd" d="M462.19 253.421L452.143 258.96C450.328 259.961 449.15 259.865 447.647 259.078L436.83 253.151C436.22 252.791 435.912 252.367 435.817 251.937L435.932 252.79C436.007 253.227 436.395 253.59 436.874 253.872L447.689 259.801C449.192 260.586 450.37 260.682 452.186 259.681L462.234 254.142C462.853 253.8 463.446 253.561 463.505 252.876L463.586 251.62L463.583 251.62C463.552 252.308 463.05 252.946 462.19 253.421" fill="#DDDDFC"/>
<path fill-rule="evenodd" clip-rule="evenodd" d="M463.653 231.267L453.607 236.806C451.791 237.807 450.614 237.71 449.11 236.924L438.294 230.997C437.684 230.636 437.377 230.213 437.28 229.782L437.395 230.636C437.472 231.073 437.858 231.435 438.338 231.718L449.154 237.647C450.656 238.432 451.833 238.528 453.649 237.527L463.698 231.988C464.317 231.646 464.91 231.406 464.969 230.721L465.051 229.465L465.046 229.466C465.015 230.153 464.514 230.792 463.653 231.267" fill="#DDDDFC"/>
<path fill-rule="evenodd" clip-rule="evenodd" d="M442.57 242.432L432.523 247.972C430.708 248.972 429.53 248.876 428.027 248.09L417.211 242.162C416.6 241.802 416.292 241.378 416.197 240.948L416.312 241.801C416.387 242.238 416.775 242.601 417.255 242.885L428.07 248.812C429.573 249.597 430.75 249.694 432.566 248.693L442.614 243.153C443.234 242.811 443.826 242.572 443.885 241.886L443.966 240.631L443.963 240.632C443.932 241.319 443.431 241.957 442.57 242.432" fill="#DDDDFC"/>
<path fill-rule="evenodd" clip-rule="evenodd" d="M620.481 320.256L589.349 336.895C587.534 337.895 586.357 337.8 584.854 337.014L574.038 331.086C573.426 330.726 573.121 330.301 573.024 329.87L573.139 330.725C573.214 331.161 573.604 331.524 574.081 331.807L584.898 337.735C586.4 338.521 587.578 338.617 589.394 337.616L620.524 320.977C621.143 320.636 621.737 320.395 621.797 319.71L621.879 318.455H621.873C621.842 319.143 621.341 319.781 620.481 320.256" fill="#DDDDFC"/>
<path fill-rule="evenodd" clip-rule="evenodd" d="M553.762 341.023L553.729 340.786C553.733 340.866 553.744 340.944 553.762 341.023" fill="#DDDDFC"/>
<path fill-rule="evenodd" clip-rule="evenodd" d="M553.728 340.773L553.729 340.786C553.729 340.781 553.73 340.777 553.729 340.773H553.728Z" fill="#DDDDFC"/>
<path fill-rule="evenodd" clip-rule="evenodd" d="M580.135 342.508L570.087 348.047C568.272 349.047 567.095 348.952 565.592 348.167L554.775 342.24C554.165 341.877 553.857 341.454 553.762 341.023L553.876 341.877C553.952 342.313 554.34 342.677 554.817 342.961L565.634 348.887C567.137 349.673 568.315 349.769 570.13 348.769L580.178 343.23C580.798 342.887 581.39 342.647 581.451 341.962L581.532 340.708H581.528C581.496 341.395 580.995 342.033 580.135 342.508" fill="#DDDDFC"/>
<path fill-rule="evenodd" clip-rule="evenodd" d="M533.926 330.018L533.893 329.78C533.897 329.859 533.909 329.938 533.926 330.018" fill="#DDDDFC"/>
<path fill-rule="evenodd" clip-rule="evenodd" d="M533.892 329.767L533.893 329.78C533.895 329.775 533.893 329.771 533.893 329.767H533.892Z" fill="#DDDDFC"/>
<path fill-rule="evenodd" clip-rule="evenodd" d="M560.298 331.503L550.251 337.042C548.436 338.042 547.26 337.946 545.755 337.16L534.939 331.233C534.33 330.872 534.022 330.448 533.926 330.018L534.04 330.871C534.117 331.308 534.504 331.671 534.983 331.955L545.799 337.882C547.302 338.668 548.478 338.764 550.294 337.763L560.343 332.224C560.962 331.881 561.555 331.642 561.615 330.956L561.696 329.701L561.692 329.702C561.661 330.39 561.16 331.027 560.298 331.503" fill="#DDDDFC"/>
<path fill-rule="evenodd" clip-rule="evenodd" d="M540.679 320.337L530.631 325.876C528.816 326.876 527.638 326.781 526.135 325.995L515.318 320.068C514.708 319.707 514.401 319.282 514.305 318.852L514.42 319.706C514.496 320.142 514.884 320.505 515.362 320.788L526.178 326.716C527.68 327.503 528.858 327.597 530.674 326.597L540.722 321.058C541.341 320.716 541.934 320.476 541.995 319.791L542.076 318.536H542.071C542.041 319.224 541.54 319.862 540.679 320.337" fill="#DDDDFC"/>
<path fill-rule="evenodd" clip-rule="evenodd" d="M495.166 307.281L495.134 307.043C495.138 307.124 495.149 307.202 495.166 307.281" fill="#DDDDFC"/>
<path fill-rule="evenodd" clip-rule="evenodd" d="M495.133 307.031L495.134 307.044C495.134 307.039 495.135 307.035 495.134 307.031H495.133Z" fill="#DDDDFC"/>
<path fill-rule="evenodd" clip-rule="evenodd" d="M521.54 308.766L511.492 314.304C509.677 315.305 508.5 315.21 506.996 314.425L496.18 308.498C495.57 308.135 495.262 307.712 495.166 307.281L495.282 308.135C495.357 308.571 495.745 308.935 496.224 309.219L507.039 315.145C508.542 315.931 509.72 316.027 511.535 315.027L521.583 309.487C522.202 309.145 522.795 308.905 522.856 308.22L522.938 306.966H522.933C522.901 307.653 522.4 308.291 521.54 308.766" fill="#DDDDFC"/>
<path fill-rule="evenodd" clip-rule="evenodd" d="M475.331 296.276L475.298 296.038C475.302 296.117 475.314 296.196 475.331 296.276" fill="#DDDDFC"/>
<path fill-rule="evenodd" clip-rule="evenodd" d="M475.297 296.025L475.298 296.038V296.025H475.297Z" fill="#DDDDFC"/>
<path fill-rule="evenodd" clip-rule="evenodd" d="M501.703 297.76L491.656 303.3C489.841 304.3 488.664 304.204 487.16 303.418L476.344 297.491C475.735 297.13 475.427 296.706 475.331 296.276L475.445 297.129C475.521 297.566 475.909 297.929 476.387 298.213L487.204 304.14C488.706 304.926 489.883 305.022 491.699 304.021L501.747 298.481C502.366 298.139 502.959 297.9 503.02 297.214L503.101 295.959L503.097 295.96C503.065 296.648 502.564 297.286 501.703 297.76" fill="#DDDDFC"/>
<path fill-rule="evenodd" clip-rule="evenodd" d="M482.084 286.595L472.036 292.134C470.221 293.134 469.043 293.039 467.54 292.253L456.724 286.326C456.113 285.965 455.806 285.54 455.71 285.109L455.826 285.964C455.901 286.4 456.289 286.763 456.767 287.046L467.583 292.974C469.086 293.761 470.264 293.855 472.079 292.855L482.127 287.316C482.746 286.974 483.339 286.734 483.4 286.049L483.481 284.794H483.476C483.445 285.481 482.944 286.12 482.084 286.595" fill="#DDDDFC"/>
<path fill-rule="evenodd" clip-rule="evenodd" d="M436.14 274.107L436.107 273.87C436.111 273.95 436.121 274.028 436.14 274.107" fill="#DDDDFC"/>
<path fill-rule="evenodd" clip-rule="evenodd" d="M436.105 273.857L436.107 273.87C436.106 273.865 436.107 273.861 436.106 273.857H436.105Z" fill="#DDDDFC"/>
<path fill-rule="evenodd" clip-rule="evenodd" d="M462.513 275.592L452.465 281.13C450.649 282.131 449.473 282.036 447.968 281.251L437.153 275.324C436.543 274.961 436.235 274.538 436.14 274.107L436.253 274.961C436.33 275.397 436.718 275.761 437.195 276.045L448.012 281.971C449.515 282.757 450.692 282.853 452.508 281.853L462.555 276.314C463.175 275.971 463.768 275.731 463.829 275.046L463.91 273.792H463.905C463.874 274.479 463.373 275.117 462.513 275.592" fill="#DDDDFC"/>
<path fill-rule="evenodd" clip-rule="evenodd" d="M416.303 263.102L416.271 262.864C416.275 262.943 416.286 263.021 416.303 263.102" fill="#DDDDFC"/>
<path fill-rule="evenodd" clip-rule="evenodd" d="M416.268 262.851L416.271 262.864V262.851H416.268Z" fill="#DDDDFC"/>
<path fill-rule="evenodd" clip-rule="evenodd" d="M442.676 264.587L432.628 270.126C430.813 271.126 429.637 271.03 428.133 270.244L417.317 264.316C416.706 263.956 416.4 263.532 416.303 263.101L416.418 263.956C416.495 264.392 416.882 264.755 417.361 265.038L428.177 270.966C429.679 271.751 430.856 271.848 432.671 270.847L442.719 265.307C443.339 264.966 443.933 264.725 443.993 264.04L444.074 262.784H444.07C444.038 263.473 443.537 264.112 442.676 264.587" fill="#DDDDFC"/>
<path fill-rule="evenodd" clip-rule="evenodd" d="M423.056 253.421L413.008 258.96C411.193 259.961 410.016 259.865 408.511 259.079L397.696 253.152C397.085 252.791 396.779 252.366 396.683 251.935L396.798 252.791C396.874 253.226 397.262 253.59 397.74 253.872L408.555 259.8C410.058 260.586 411.236 260.682 413.052 259.681L423.1 254.142C423.719 253.8 424.312 253.56 424.371 252.876L424.453 251.62H424.448C424.418 252.307 423.917 252.946 423.056 253.421" fill="#DDDDFC"/>
<path fill-rule="evenodd" clip-rule="evenodd" d="M532.685 352.188L532.654 351.95C532.658 352.031 532.668 352.109 532.685 352.188" fill="#DDDDFC"/>
<path fill-rule="evenodd" clip-rule="evenodd" d="M532.652 351.938L532.654 351.951V351.938H532.652Z" fill="#DDDDFC"/>
<path fill-rule="evenodd" clip-rule="evenodd" d="M559.059 353.673L549.011 359.212C547.196 360.212 546.019 360.117 544.516 359.332L533.699 353.405C533.089 353.042 532.782 352.619 532.685 352.188L532.801 353.042C532.877 353.478 533.265 353.842 533.742 354.126L544.559 360.052C546.061 360.838 547.239 360.934 549.053 359.934L559.102 354.395C559.722 354.053 560.314 353.812 560.375 353.127L560.457 351.873H560.452C560.42 352.56 559.92 353.198 559.059 353.673" fill="#DDDDFC"/>
<path fill-rule="evenodd" clip-rule="evenodd" d="M512.85 341.183L512.817 340.945C512.822 341.024 512.833 341.103 512.85 341.183" fill="#DDDDFC"/>
<path fill-rule="evenodd" clip-rule="evenodd" d="M512.816 340.932L512.817 340.945C512.818 340.941 512.817 340.936 512.817 340.932H512.816Z" fill="#DDDDFC"/>
<path fill-rule="evenodd" clip-rule="evenodd" d="M539.223 342.668L529.175 348.207C527.361 349.207 526.184 349.111 524.679 348.325L513.864 342.398C513.254 342.037 512.946 341.613 512.85 341.183L512.965 342.036C513.041 342.473 513.428 342.836 513.907 343.12L524.723 349.047C526.226 349.832 527.403 349.929 529.217 348.928L539.267 343.389C539.886 343.047 540.479 342.807 540.538 342.121L540.62 340.866L540.616 340.867C540.585 341.555 540.084 342.193 539.223 342.668" fill="#DDDDFC"/>
<path fill-rule="evenodd" clip-rule="evenodd" d="M519.602 331.502L509.555 337.041C507.741 338.042 506.562 337.946 505.059 337.16L416.077 286.53C415.466 286.169 415.159 285.744 415.063 285.314L415.178 286.168C415.254 286.604 415.642 286.967 416.12 287.25L505.103 337.881C506.605 338.668 507.783 338.762 509.598 337.763L519.647 332.223C520.265 331.881 520.858 331.641 520.919 330.956L521 329.701H520.994C520.965 330.389 520.463 331.027 519.602 331.502" fill="#DDDDFC"/>
<path fill-rule="evenodd" clip-rule="evenodd" d="M474.091 318.446L474.058 318.209C474.063 318.289 474.074 318.367 474.091 318.446" fill="#DDDDFC"/>
<path fill-rule="evenodd" clip-rule="evenodd" d="M474.057 318.196L474.058 318.209C474.058 318.204 474.059 318.2 474.058 318.196H474.057Z" fill="#DDDDFC"/>
<path fill-rule="evenodd" clip-rule="evenodd" d="M454.255 307.441L454.222 307.203C454.227 307.282 454.238 307.361 454.255 307.441" fill="#DDDDFC"/>
<path fill-rule="evenodd" clip-rule="evenodd" d="M454.221 307.19L454.222 307.203V307.19H454.221Z" fill="#DDDDFC"/>
<path fill-rule="evenodd" clip-rule="evenodd" d="M415.063 285.272L415.032 285.035C415.035 285.115 415.046 285.193 415.063 285.272" fill="#DDDDFC"/>
<path fill-rule="evenodd" clip-rule="evenodd" d="M415.029 285.022L415.032 285.035C415.03 285.03 415.032 285.026 415.03 285.022H415.029Z" fill="#DDDDFC"/>
<path fill-rule="evenodd" clip-rule="evenodd" d="M395.228 274.267L395.195 274.029C395.199 274.108 395.21 274.187 395.228 274.267" fill="#DDDDFC"/>
<path fill-rule="evenodd" clip-rule="evenodd" d="M395.194 274.016L395.195 274.029V274.016H395.194Z" fill="#DDDDFC"/>
<path fill-rule="evenodd" clip-rule="evenodd" d="M421.6 275.751L411.553 281.291C409.738 282.292 408.56 282.195 407.057 281.409L396.241 275.482C395.631 275.121 395.324 274.697 395.228 274.267L395.342 275.12C395.419 275.558 395.806 275.92 396.284 276.203L407.101 282.131C408.604 282.917 409.78 283.013 411.595 282.012L421.644 276.472C422.264 276.13 422.857 275.891 422.916 275.205L422.998 273.95H422.994C422.963 274.639 422.461 275.277 421.6 275.751" fill="#DDDDFC"/>
<path fill-rule="evenodd" clip-rule="evenodd" d="M401.981 264.586L391.933 270.125C390.118 271.126 388.94 271.03 387.437 270.244L376.621 264.317C376.01 263.956 375.703 263.531 375.607 263.1L375.722 263.956C375.798 264.391 376.186 264.755 376.664 265.038L387.48 270.966C388.983 271.751 390.16 271.847 391.976 270.846L402.024 265.306C402.643 264.966 403.236 264.725 403.296 264.04L403.377 262.785H403.373C403.342 263.473 402.842 264.111 401.981 264.586" fill="#DDDDFC"/>
<path fill-rule="evenodd" clip-rule="evenodd" d="M465.805 13.3281L465.877 180.378C466.094 186.523 470.865 188.222 470.865 188.222L662.455 295.84C662.455 295.84 664.949 297.191 667.881 297.553C669.6 297.765 671.47 297.638 673.075 296.696C673.236 296.601 673.392 296.506 673.536 296.398C676.964 293.83 676.923 287.345 676.923 287.345V124.482C676.573 117.46 670.428 114.851 670.428 114.851L472.85 6.14334C472.85 6.14334 469.039 4.08121 467.374 5.89672C465.603 7.82719 465.805 9.00455 465.805 13.3281" fill="#C86DD7"/>
<path fill-rule="evenodd" clip-rule="evenodd" d="M645.894 334.398L652.768 330.462C653.834 329.852 654.462 328.386 653.871 327.346C654.542 327.428 655.169 327.789 655.543 328.391C656.189 329.435 655.554 330.944 654.469 331.565L647.597 335.501C646.962 335.864 646.22 335.89 645.584 335.647C645.131 335.474 644.729 335.171 644.46 334.738C644.448 334.72 644.44 334.7 644.429 334.68C644.92 334.745 645.436 334.661 645.894 334.398" fill="#B6B6DD"/>
<path fill-rule="evenodd" clip-rule="evenodd" d="M645.533 331.565L652.406 327.629C652.778 327.416 653.189 327.324 653.593 327.327C653.686 327.327 653.778 327.334 653.87 327.346C654.462 328.386 653.833 329.853 652.768 330.462L645.894 334.398C645.435 334.661 644.92 334.745 644.429 334.68C643.839 333.64 644.468 332.175 645.533 331.565" fill="#C7C7EA"/>
<path fill-rule="evenodd" clip-rule="evenodd" d="M518.46 47.2251V206.332L622.765 263.764V104.656L518.46 47.2251Z" fill="white"/>
<path fill-rule="evenodd" clip-rule="evenodd" d="M518.46 58.9457L622.765 116.376V174.102L518.46 116.67V58.9457Z" fill="#DDDDFC"/>
<path fill-rule="evenodd" clip-rule="evenodd" d="M531.017 156.165V171.49L551.713 182.825V167.711L531.017 156.165Z" fill="#DDDDFC"/>
<path fill-rule="evenodd" clip-rule="evenodd" d="M543.326 139.635V144.148L596.668 173.798V169.495L543.326 139.635Z" fill="#DDDDFC"/>
<path fill-rule="evenodd" clip-rule="evenodd" d="M552.34 152.414V156.165L587.848 175.669V172.127L552.34 152.414Z" fill="#DDDDFC"/>
<path fill-rule="evenodd" clip-rule="evenodd" d="M531.017 173.798V175.792L551.713 187.128V185.344L531.017 173.798Z" fill="#DDDDFC"/>
<path fill-rule="evenodd" clip-rule="evenodd" d="M531.017 178.546V180.54L547.479 189.653V187.868L531.017 178.546Z" fill="#DDDDFC"/>
<path fill-rule="evenodd" clip-rule="evenodd" d="M559.027 171.668V186.992L579.723 198.328V183.213L559.027 171.668Z" fill="#DDDDFC"/>
<path fill-rule="evenodd" clip-rule="evenodd" d="M559.027 189.301V191.295L579.723 202.631V200.847L559.027 189.301Z" fill="#DDDDFC"/>
<path fill-rule="evenodd" clip-rule="evenodd" d="M559.027 193.698V195.69L575.491 204.804V203.019L559.027 193.698Z" fill="#DDDDFC"/>
<path fill-rule="evenodd" clip-rule="evenodd" d="M586.942 187.171V202.495L607.638 213.831V198.716L586.942 187.171Z" fill="#DDDDFC"/>
<path fill-rule="evenodd" clip-rule="evenodd" d="M586.996 225.987V233.253L605.252 243.249V236.194L586.996 225.987Z" fill="#DDDDFC"/>
<path fill-rule="evenodd" clip-rule="evenodd" d="M586.942 204.804V206.798L607.638 218.134V216.35L586.942 204.804Z" fill="#DDDDFC"/>
<path fill-rule="evenodd" clip-rule="evenodd" d="M586.996 209.17V211.164L603.459 220.277V218.493L586.996 209.17Z" fill="#DDDDFC"/>
<path fill-rule="evenodd" clip-rule="evenodd" d="M586.996 225.987L588.308 225.347L606.341 235.552L605.252 236.194L586.996 225.987Z" fill="#E4E4F4"/>
<path fill-rule="evenodd" clip-rule="evenodd" d="M605.251 236.194L606.341 235.552V242.607L605.251 243.249V236.194Z" fill="#CECEEF"/>
<path fill-rule="evenodd" clip-rule="evenodd" d="M524.63 55.5211C525.479 54.8456 526.801 55.0382 527.582 55.9502C528.364 56.8621 528.31 58.1495 527.462 58.8249C526.612 59.5003 525.291 59.3084 524.509 58.3965C523.727 57.4838 523.781 56.1972 524.63 55.5211" fill="#E8F0F4"/>
<path fill-rule="evenodd" clip-rule="evenodd" d="M294.615 221.113C294.615 221.113 184.217 282.739 180.594 284.76C174.265 288.29 168.583 284.209 168.583 284.209L96.6164 244.222C96.6164 244.222 94.5386 243.309 94.4943 240.977C94.4922 240.966 94.4893 240.955 94.4893 240.945V244.834C94.4893 246.52 97.0505 247.937 97.0505 247.937L169.19 288.722C169.19 288.722 174.689 292.335 181.008 288.733C184.611 286.679 294.615 224.476 294.615 224.476C294.615 224.476 297.963 222.925 297.963 220.166V217.71C297.724 219.724 294.615 221.113 294.615 221.113" fill="#DDDDFC"/>
<path fill-rule="evenodd" clip-rule="evenodd" d="M293.479 212.886L225.273 174.243C225.273 174.243 219.347 170.053 212.549 173.88L96.729 237.675C96.729 237.675 94.4893 238.717 94.4893 240.904C94.4893 240.929 94.4922 240.953 94.4944 240.977C94.5387 243.309 96.6164 244.222 96.6164 244.222L168.583 284.209C168.583 284.209 174.265 288.29 180.594 284.76C184.217 282.739 294.615 221.113 294.615 221.113C294.615 221.113 297.724 219.723 297.963 217.71C298.238 215.407 293.479 212.886 293.479 212.886" fill="#F6F6FF"/>
<path fill-rule="evenodd" clip-rule="evenodd" d="M287.109 217.96L189.117 272.511L118.864 233.444L216.254 178.383L287.109 217.96Z" fill="#C86DD7"/>
<path fill-rule="evenodd" clip-rule="evenodd" d="M137.067 257.735C137.067 256.07 139.383 254.72 142.24 254.72C145.095 254.72 147.412 256.07 147.412 257.735C147.412 259.402 145.095 260.753 142.24 260.753C139.383 260.753 137.067 259.402 137.067 257.735ZM136.659 257.735C136.659 259.533 139.157 260.991 142.24 260.991C145.321 260.991 147.819 259.533 147.819 257.735C147.819 255.939 145.321 254.482 142.24 254.482C139.157 254.482 136.659 255.939 136.659 257.735Z" fill="#D8D8D8"/>
<path fill-rule="evenodd" clip-rule="evenodd" d="M324.177 107.274L324.237 108.44C324.705 116.176 328.573 159.806 356.586 167.432C379.045 173.049 385.401 164.925 386.122 163.863L389.459 98.1283H323.714L324.177 107.261V107.274Z" fill="white"/>
<path fill-rule="evenodd" clip-rule="evenodd" d="M356.586 167.432C328.573 159.806 324.705 116.176 324.236 108.441L327.277 168.322C327.277 177.417 340.398 184.792 356.586 184.792C372.773 184.792 385.896 177.417 385.896 168.322L386.122 163.863C385.402 164.925 379.044 173.05 356.586 167.432" fill="#F6F6FF"/>
<path fill-rule="evenodd" clip-rule="evenodd" d="M356.586 178.86C341.123 178.86 328.419 172.228 326.978 163.751C326.888 164.281 326.838 164.816 326.838 165.359C326.838 174.592 340.157 182.077 356.586 182.077C373.016 182.077 386.335 174.592 386.335 165.359C386.335 164.816 386.285 164.281 386.195 163.751C384.755 172.228 372.051 178.86 356.586 178.86" fill="#F0F0FC"/>
<path fill-rule="evenodd" clip-rule="evenodd" d="M388.763 96.0082C388.763 105.995 374.357 114.091 356.586 114.091C338.815 114.091 324.408 105.995 324.408 96.0082C324.408 86.0212 338.815 77.9265 356.586 77.9265C374.357 77.9265 388.763 86.0212 388.763 96.0082" fill="white"/>
<path fill-rule="evenodd" clip-rule="evenodd" d="M356.586 119.224C339.56 119.224 325.572 111.922 323.986 102.586C323.886 103.17 323.831 103.761 323.831 104.358C323.831 114.524 338.496 122.766 356.586 122.766C374.675 122.766 389.342 114.524 389.342 104.358C389.342 103.761 389.286 103.17 389.187 102.586C387.601 111.922 373.613 119.224 356.586 119.224" fill="#F0F0FC"/>
<path fill-rule="evenodd" clip-rule="evenodd" d="M356.586 103.783C339.867 103.783 326.133 96.6129 324.576 87.4465C324.478 88.0193 324.425 88.5991 324.425 89.1867C324.425 99.1681 338.823 107.261 356.586 107.261C374.349 107.261 388.749 99.1681 388.749 89.1867C388.749 88.5991 388.694 88.0193 388.598 87.4465C387.039 96.6129 373.303 103.783 356.586 103.783" fill="#FCFCFC"/>
<path fill-rule="evenodd" clip-rule="evenodd" d="M357.237 113.725C369.718 114.851 377.338 113.093 381.975 110.725C385.024 108.786 387.378 106.497 388.825 103.977C388.974 103.593 389.024 103.367 389.024 103.367C389.024 103.367 389.06 103.386 389.127 103.418C389.989 101.739 390.462 99.9649 390.462 98.1283C390.462 87.6142 375.295 79.0917 356.586 79.0917C341.577 79.0917 328.855 84.5799 324.408 92.1777C324.392 92.7069 324.084 111.145 357.237 113.725" fill="white"/>
<path fill-rule="evenodd" clip-rule="evenodd" d="M356.586 117.165C366.698 117.165 375.769 114.673 381.976 110.724C377.338 113.093 369.718 114.851 357.237 113.725C324.083 111.144 324.393 92.7074 324.408 92.1775C323.311 94.0501 322.711 96.05 322.711 98.1288C322.711 108.642 337.878 117.165 356.586 117.165" fill="#F6F6FF"/>
<path fill-rule="evenodd" clip-rule="evenodd" d="M388.594 89.4549C388.594 99.3891 374.264 107.443 356.586 107.443C338.908 107.443 324.577 99.3891 324.577 89.4549C324.577 79.52 338.908 71.4668 356.586 71.4668C374.264 71.4668 388.594 79.52 388.594 89.4549" fill="white"/>
<path fill-rule="evenodd" clip-rule="evenodd" d="M356.586 71.6765C339.056 71.6765 324.794 79.6515 324.794 89.4548C324.794 99.2581 339.056 107.233 356.586 107.233C374.117 107.233 388.378 99.2581 388.378 89.4548C388.378 79.6515 374.117 71.6765 356.586 71.6765ZM356.586 107.651C338.817 107.651 324.361 99.489 324.361 89.4548C324.361 79.4207 338.817 71.2578 356.586 71.2578C374.355 71.2578 388.811 79.4207 388.811 89.4548C388.811 99.489 374.355 107.651 356.586 107.651Z" fill="#F7F7F7"/>
<path fill-rule="evenodd" clip-rule="evenodd" d="M354.417 100.151H361.555C361.734 100.151 361.905 100.188 362.059 100.254C362.059 100.24 362.062 100.226 362.062 100.212C362.062 99.5398 361.5 98.9945 360.807 98.9945H353.668C352.974 98.9945 352.412 99.5398 352.412 100.212C352.412 100.711 352.722 101.139 353.164 101.327C353.187 100.675 353.737 100.151 354.417 100.151" fill="#DADEE0"/>
<path fill-rule="evenodd" clip-rule="evenodd" d="M360.806 101.43C361.486 101.43 362.036 100.907 362.059 100.254C361.905 100.188 361.734 100.151 361.555 100.151H354.417C353.738 100.151 353.187 100.674 353.165 101.328C353.319 101.393 353.489 101.43 353.668 101.43H360.806Z" fill="#E8E8E8"/>
<defs>
<linearGradient id="paint0_linear_2067_365" x1="825.98" y1="162.04" x2="426.02" y2="565.96" gradientUnits="userSpaceOnUse">
<stop stop-color="#3023AE"/>
<stop offset="1" stop-color="#C86DD7"/>
</linearGradient>
<linearGradient id="paint1_linear_2067_365" x1="673.78" y1="-41.56" x2="516.22" y2="117.56" gradientUnits="userSpaceOnUse">
<stop stop-color="#3023AE"/>
<stop offset="1" stop-color="#C86DD7"/>
</linearGradient>
<linearGradient id="paint2_linear_2067_365" x1="50.5" y1="528" x2="-50.5" y2="630" gradientUnits="userSpaceOnUse">
<stop stop-color="#3023AE"/>
<stop offset="1" stop-color="#C86DD7"/>
</linearGradient>
<linearGradient id="paint3_linear_2067_365" x1="719.208" y1="731.077" x2="719.208" y2="196.962" gradientUnits="userSpaceOnUse">
<stop stop-color="white"/>
<stop offset="1" stop-color="#DDDDFF"/>
</linearGradient>
</defs>
</svg>
